<?xml version="1.0" encoding="UTF-8" standalone="no"?>
<!-- Created with Inkscape (http://www.inkscape.org/) -->

<svg
   version="1.1"
   id="svg1791"
   width="453.23102"
   height="741.13092"
   viewBox="0 0 453.23102 741.13092"
   sodipodi:docname="lady3c.svg"
   inkscape:version="1.3.2 (091e20ef0f, 2023-11-25)"
   xmlns:inkscape="http://www.inkscape.org/namespaces/inkscape"
   xmlns:sodipodi="http://sodipodi.sourceforge.net/DTD/sodipodi-0.dtd"
   xmlns="http://www.w3.org/2000/svg"
   xmlns:svg="http://www.w3.org/2000/svg">
  <defs
     id="defs1795" />
  <sodipodi:namedview
     id="namedview1793"
     pagecolor="#ffffff"
     bordercolor="#000000"
     borderopacity="0.25"
     inkscape:showpageshadow="2"
     inkscape:pageopacity="0.0"
     inkscape:pagecheckerboard="0"
     inkscape:deskcolor="#d1d1d1"
     showgrid="false"
     inkscape:zoom="0.87705101"
     inkscape:cx="225.75654"
     inkscape:cy="417.87763"
     inkscape:window-width="1920"
     inkscape:window-height="1011"
     inkscape:window-x="0"
     inkscape:window-y="0"
     inkscape:window-maximized="1"
     inkscape:current-layer="layer2" />
  <g
     inkscape:groupmode="layer"
     id="layer2"
     inkscape:label="Layer 1">
    <path
       style="fill:#000000"
       d="m 237,763.34288 c -1.925,-0.18538 -8.675,-0.82234 -15,-1.41548 -25.88857,-2.42776 -56.57956,-8.68019 -85.731,-17.46528 -9.25744,-2.78983 -20.18017,-5.22789 -29.269,-6.53312 -26.507164,-3.80666 -39.395351,-10.0074 -63,-30.31045 -3.575,-3.07497 -6.860923,-5.59708 -7.30205,-5.6047 -1.4066,-0.0243 -16.547383,-7.84266 -19.696202,-10.17068 -5.595781,-4.13714 -6.37036,-14.68652 -2.007649,-27.34317 1.137501,-3.3 5.409584,-12.975 9.493518,-21.5 4.083935,-8.525 7.731072,-16.85 8.104751,-18.5 0.373678,-1.65 1.295347,-4.125 2.048153,-5.5 0.752806,-1.375 3.164462,-7.77632 5.359237,-14.22515 2.194774,-6.44883 7.084885,-18.59883 10.866914,-27 C 58.799764,560.15276 61.803034,551.33178 69.5158,523 c 7.168836,-26.33372 20.832461,-68.18168 24.15982,-73.99493 6.191271,-10.81681 14.34263,-16.97114 38.83439,-29.32024 9.34449,-4.71162 19.01499,-9.94127 21.48999,-11.62143 2.475,-1.68016 4.86219,-3.05676 5.30487,-3.05912 1.19144,-0.006 12.25811,-7.6255 19.69513,-13.55966 3.575,-2.85257 11.86343,-8.69778 18.41874,-12.98936 15.42874,-10.10075 23.54905,-18.0108 26.42704,-25.74277 2.5499,-6.85055 2.69668,-10.47844 0.62457,-15.43769 -1.56751,-3.75158 -1.49149,-15.60093 0.12647,-19.71483 0.4654,-1.18333 0.32481,-2.08609 -0.36045,-2.31451 -0.6179,-0.20597 -5.84921,-3.43402 -11.62515,-7.17345 -8.53008,-5.52252 -12.12195,-7.20534 -19.13191,-8.96349 -10.50684,-2.63519 -26.80051,-7.76133 -31.24015,-9.82843 -2.03449,-0.94727 -3.50801,-2.5077 -3.91807,-4.14917 -0.36149,-1.44701 -1.96549,-3.85562 -3.56446,-5.35247 -1.96143,-1.83615 -2.80535,-3.49888 -2.5941,-5.11097 0.17222,-1.31419 -0.29685,-3.1244 -1.04236,-4.02269 -1.04873,-1.26364 -1.15913,-3.16214 -0.48783,-8.38902 L 151.5,255.5 l 4.5,0.21193 c 2.475,0.11656 8.2125,0.50171 12.75,0.85588 l 8.25,0.64396 v -3.5241 C 177,249.15231 177.85183,247 179.64683,247 c 4.68213,0 23.48201,13.62436 29.23398,21.18599 3.52649,4.63599 13.70661,12.26867 11.55441,8.66307 -3.53816,-5.9275 -10.25599,-13.39806 -22.25911,-24.75323 -17.72149,-16.76484 -18.4007,-17.25002 -31.09879,-22.21473 -9.34,-3.65175 -11.17156,-4.05164 -16.16615,-3.5296 C 141.67131,227.31725 134,223.68701 134,218.34874 c 0,-1.34293 -1.02571,-2.97471 -2.46101,-3.91515 -2.97356,-1.94835 -3.99607,-4.711 -2.66451,-7.19906 0.76072,-1.42142 0.54543,-2.11571 -0.9446,-3.04625 -2.38804,-1.49135 -2.42991,-3.14585 -0.17988,-7.10724 1.66667,-2.93432 1.66667,-3.22776 0,-6.16208 -3.35533,-5.90737 -1.75087,-8.93997 4.7,-8.88352 2.2275,0.0195 5.175,0.67854 6.55,1.46456 3.43262,1.96226 5,1.84391 5,-0.37756 0,-3.58885 2.341,-4.25474 6.06438,-1.72497 1.88959,1.28384 5.01062,2.65781 6.93562,3.05328 5.63809,1.15827 26.517,14.03478 28.85576,17.79602 3.69105,5.93602 25.06317,24.54688 35.66563,31.05766 8.5971,5.27933 19.2598,9.53485 25.82361,10.3063 l 5.655,0.66463 v -3.61744 c 0,-7.40836 3.36032,-13.1138 17.0095,-28.88017 3.58023,-4.13558 8.75523,-11.42048 11.5,-16.18866 2.74478,-4.76819 9.01472,-15.51386 13.9332,-23.87926 15.12258,-25.72061 16.71166,-32.41555 9.24731,-38.95983 -2.92715,-2.56635 -4.68111,-2.16448 -9.68629,2.21933 -5.92002,5.18508 -11.11807,6.2057 -14.6767,2.88174 -1.38438,-1.29309 -3.16085,-3.58857 -3.94771,-5.10107 -0.78687,-1.5125 -2.06956,-2.75 -2.85042,-2.75 -0.78087,0 -2.03685,-1.2375 -2.79108,-2.75 -0.75422,-1.5125 -1.90378,-2.6375 -2.55456,-2.5 C 267.53246,124.8875 267,124.11156 267,123.02568 c 0,-1.18089 -1.20183,-2.59581 -2.99058,-3.52081 -5.77562,-2.98669 -6.32982,-5.39085 -7.30025,-31.66894 -0.11504,-3.115239 -0.54667,-6.002739 -0.95917,-6.416667 -0.4125,-0.413928 -0.75,-1.359519 -0.75,-2.101314 0,-0.741795 -1.62873,-3.80176 -3.6194,-6.799924 -3.40632,-5.130296 -3.57908,-5.773868 -2.9346,-10.932152 0.83855,-6.711464 3.52412,-12.462422 8.37573,-17.936037 2.02305,-2.28241 4.1721,-5.049836 4.77566,-6.149836 1.26787,-2.310683 7.9675,-7.125499 10.90261,-7.835355 1.1,-0.266035 5.77734,-1.930518 10.3941,-3.698851 l 8.39409,-3.215151 12.10591,1.071816 c 6.65824,0.589499 14.3559,1.83855 17.1059,2.77567 9.53294,3.248547 20.68736,10.466458 29.11417,18.839488 8.85125,8.794754 8.83161,8.753101 13.29179,28.186168 C 364.33583,79.853754 365,86.15795 365,93.5 c 0,16.7813 2.5965,26.17117 10.28414,37.19115 5.44927,7.81135 6.12849,9.31539 5.99822,13.28208 -0.13236,4.03005 0.40977,5.16941 5.47187,11.5 3.09033,3.86472 9.40542,10.78611 14.03353,15.38086 14.32073,14.21751 17.49474,24.85244 19.15747,64.18953 0.92248,21.82428 1.20502,24.15218 4.06061,33.45638 1.68802,5.5 3.75557,14.263 4.59455,19.47334 0.83899,5.21033 1.97678,10.01718 2.52844,10.68189 0.55165,0.6647 1.24736,6.0767 1.54602,12.02666 0.81055,16.1483 -2.49864,27.72996 -10.67235,37.35157 l -3.00172,3.53345 3.41267,6.46655 c 1.87698,3.5566 6.12846,13.66654 9.44774,22.46654 3.31928,8.8 7.88702,20.00759 10.15051,24.90575 14.56426,31.51675 23.13569,74.46318 23.37016,117.09425 0.12013,21.84221 0.74679,19.39396 -12.98665,50.73656 -4.03342,9.20511 -8.02238,19.39506 -8.86435,22.64434 -1.90271,7.34279 -1.91283,20.17624 -0.0309,39.1191 0.84865,8.54204 1.45278,25.61484 1.47029,41.55038 l 0.0297,27.05039 -5.09588,5.71744 C 429.79681,720.65836 410.61163,726.88928 380.5,728.61135 l -11,0.62909 -5,4.71832 c -17.81409,16.81052 -37.1535,24.67972 -70.13449,28.53771 -11.5458,1.35059 -46.73793,1.86983 -57.36551,0.84641 z"
       id="path1909"
       transform="translate(-12.190724,-22.750643)" />
    <path
       id="path1944"
       style="fill:#0066ff"
       d="M 367.54229 155.23306 C 366.42563 155.21759 365.30449 155.22035 364.20244 155.24283 C 358.91261 155.35075 354.04219 155.90443 351.99736 156.98697 C 344.92681 160.73018 334.64871 168.54901 330.81963 173.0983 C 328.44373 175.92107 323.98444 181.21701 320.90947 184.86588 C 307.05233 201.30931 305.64717 206.00064 314.58135 206.00064 C 317.40527 206.00064 317.57295 206.73658 315.44268 209.77799 C 313.28297 212.86139 311.64413 212.57674 306.90752 208.29752 C 301.93922 203.80894 297.02189 195.54003 297.00908 191.65103 C 297.00408 190.08369 299.05648 183.661 301.56963 177.37955 C 306.62211 164.75115 307.20882 159.49715 302.72002 167.08072 C 301.22903 169.59967 299.16591 174.09967 298.13408 177.08072 C 297.10225 180.06177 292.85412 190.60066 288.69463 200.50064 C 281.31254 218.07079 275.6633 233.94941 274.40166 240.67447 C 273.93107 243.18296 274.45133 245.40134 276.48565 249.55924 C 279.94201 256.62382 285.00151 260.17054 292.51494 260.79361 C 302.57158 261.62759 305.36318 259.79207 315.41338 245.74674 C 331.38792 223.42202 331.82013 227.44782 315.97783 251.00064 C 305.27082 266.91884 302.8025 272.13141 302.23955 280.00064 C 301.83831 285.6095 302.05123 286.7501 303.79815 288.32486 C 305.02549 289.43127 306.93906 290.02187 308.65752 289.82486 C 311.67384 289.47906 313.26761 287.45031 329.3333 263.50064 C 333.39171 257.45066 337.69982 251.6212 338.90752 250.54752 L 341.10479 248.59635 L 340.07354 251.30533 C 338.40513 255.69359 336.25974 259.52776 330.31377 268.74478 C 322.0337 281.57994 320.01816 286.43463 320.03252 293.50064 C 320.04682 300.52253 322.78689 307.47932 325.93096 308.47721 C 331.86739 310.36135 341.20685 303.42627 348.7669 291.51822 C 353.96984 283.32289 357.78886 279.00064 359.82744 279.00064 C 360.99384 279.00064 361.16488 280.1047 360.70049 284.60416 C 360.10389 290.38468 356.99662 297.51596 348.54033 312.50064 C 341.17232 325.55688 342.27008 329.78625 353.06377 329.93619 C 356.78389 329.98789 358.11245 329.4927 360.25713 327.25064 C 364.82965 322.47052 368.15271 313.54785 370.18682 300.59635 C 372.67268 284.76844 374.59053 276.50104 376.92705 271.54166 C 377.97422 269.31899 379.12889 264.77608 379.49151 261.44791 C 379.85411 258.11974 380.9749 251.81972 381.98369 247.44791 L 383.81768 239.50064 L 383.90947 244.5065 C 383.95937 247.26013 383.51335 251.08513 382.91924 253.0065 C 381.30875 258.21486 381.77466 295.44253 383.5794 305.79166 C 385.65897 317.71688 386.15747 318.29243 389.4876 312.61002 C 396.50975 300.6276 398.10094 286.57042 395.66533 258.00064 C 394.79789 247.82566 393.79414 233.69345 393.43486 226.59635 C 391.91987 196.66969 384.88911 180.47151 371.89776 176.9733 C 365.8249 175.33804 362.4457 176.32313 352.05596 182.76627 C 342.43527 188.73248 340.06929 191.56852 338.50908 199.00064 C 338.10497 200.92564 335.75941 208.12566 333.29619 215.00064 C 327.0822 232.34426 327.75631 230.76659 327.31768 228.98697 C 327.11255 228.15471 328.4887 222.97971 330.37627 217.48697 C 332.26384 211.99425 334.34916 204.7462 335.00908 201.3815 C 336.43594 194.10635 339.64797 187.98513 342.88408 186.37174 C 344.1717 185.72979 347.31186 183.18145 349.8626 180.70963 C 352.41333 178.23779 355.9403 175.49221 357.70049 174.60806 C 361.71631 172.59092 370.43375 172.53538 375.98174 174.49283 C 381.63727 176.48822 389.08207 182.06883 392.31572 186.73502 C 398.12112 195.1122 402.12343 212.46622 404.48369 239.50064 C 407.04205 268.8039 410.0876 296.3332 410.93877 297.85416 C 411.96494 299.68783 412.64171 294.80961 414.11455 275.00064 C 415.48165 256.61397 414.74375 228.82414 412.49346 214.00064 C 410.25844 199.27779 405.40458 181.21001 402.50908 176.83463 C 396.5406 167.81564 385.29634 163.5879 370.11651 164.65494 C 363.47859 165.12153 360.88402 164.99749 361.35283 164.23892 C 362.1532 162.94398 370.7135 161.00064 375.61455 161.00064 C 379.32908 161.00064 382.99932 159.52929 382.99932 158.04166 C 382.99932 156.36141 375.35891 155.34141 367.54229 155.23306 z M 340.54424 174.88736 C 340.65589 174.89096 340.57899 175.08814 340.28643 175.50064 C 337.46174 179.48329 327.99932 188.68838 327.99932 187.45377 C 327.99932 186.91929 331.24244 183.3357 335.20635 179.49088 C 338.17928 176.60724 340.20928 174.87656 340.54424 174.88736 z M 326.41338 189.61588 C 326.5052 189.62456 326.40124 189.91946 326.10088 190.50064 C 324.41516 193.76241 323.03097 195.57071 323.03838 194.50064 C 323.04238 193.95064 323.96448 192.37564 325.08916 191.00064 C 325.85316 190.06661 326.29532 189.60471 326.41338 189.61588 z M 276.83916 211.16666 C 275.26065 211.57214 262.56256 224.99136 260.31377 228.78189 C 255.45278 236.97555 255.3217 245.32992 259.95049 251.99088 C 260.9095 253.37092 262.18711 255.95801 262.79033 257.73892 C 265.03129 264.35507 278.558 283.00064 281.11651 283.00064 C 281.6025 283.00064 281.99932 282.34777 281.99932 281.54947 C 281.99932 280.75118 279.79251 275.90344 277.09502 270.77799 C 268.82757 255.0691 268.08031 243.58935 273.96416 222.73892 C 275.63426 216.82064 276.99932 211.65823 276.99932 211.26627 C 276.99932 211.17092 276.9444 211.13963 276.83916 211.16666 z M 372.53447 230.9401 C 372.667 230.90125 372.75993 230.98662 372.80401 231.21549 C 372.98272 232.14342 371.58206 236.47086 369.69268 240.83072 C 365.68681 250.07455 364.46477 255.02131 362.9876 267.96353 C 361.83622 278.05124 361.58512 278.96838 360.65166 276.5358 C 359.8075 274.33596 361.66823 260.64461 364.04229 251.58072 C 366.18666 243.39371 371.25337 231.31561 372.53447 230.9401 z M 216.49932 231.00455 L 215.88213 234.65885 C 214.80171 241.04697 217.40929 260.02975 220.20635 266.13931 C 223.26919 272.82945 229.081 278.69026 233.91143 279.95963 C 236.86463 280.7357 248.75693 282.05927 259.76885 282.83853 C 261.74674 282.9785 261.96005 282.64776 261.43291 280.25064 C 261.1003 278.73814 259.43458 274.57517 257.72979 271.00064 C 253.9534 263.0825 241.34696 250.02897 226.49932 238.6608 L 216.49932 231.00455 z M 238.9251 285.13346 C 238.47611 285.13727 238.08625 285.15486 237.76104 285.18619 L 234.49932 285.50064 L 234.63213 292.00064 C 234.70503 295.57564 234.88925 300.3783 235.04033 302.67447 C 235.2309 305.57095 234.51818 308.47993 232.71221 312.17447 C 231.28054 315.1033 229.82984 319.76564 229.48955 322.5358 C 228.70431 328.92821 230.44311 330.72352 239.5833 332.95181 C 243.17387 333.82716 246.13272 334.98388 246.15947 335.52213 C 246.18617 336.06038 243.91829 337.34111 241.11846 338.36978 C 236.70348 339.99187 235.89325 340.72183 235.01885 343.86978 C 233.41206 349.65447 233.80378 351.95746 236.92315 355.07681 C 239.45371 357.60738 240.59265 358.00064 245.41143 358.00064 C 248.47283 358.00064 253.13338 357.18099 255.7669 356.18033 C 262.92754 353.4595 275.65021 344.52519 283.11846 336.9733 C 291.36729 328.63208 295.79357 320.11487 296.61455 311.00064 C 297.13022 305.27582 296.91982 304.08333 294.84893 301.00064 C 291.99001 296.7449 285.93663 293.61827 274.41338 290.44791 C 265.51653 288.00014 245.65986 285.07629 238.9251 285.13346 z M 296.84307 290.14908 C 296.62325 290.1567 296.43897 290.22701 296.29815 290.36783 C 295.23301 291.43298 298.14218 297.5515 301.22588 300.73306 C 304.76549 304.385 306.99932 304.93202 306.99932 302.14908 C 306.99932 298.65776 299.43696 290.05916 296.84307 290.14908 z M 315.22783 309.00064 C 312.83147 309.00064 301.7166 322.76817 297.91143 330.44986 C 292.17085 342.03863 291.79316 348.55696 295.9251 364.79947 C 300.72325 383.66082 305.06189 394.00064 308.17901 394.00064 C 308.65737 394.00064 309.53088 392.76314 310.11846 391.25064 C 311.56107 387.53721 310.10387 381.46151 305.10479 370.33267 C 299.73902 358.38757 298.55529 353.36394 299.91533 348.31314 C 300.50699 346.11587 301.8109 343.57638 302.81182 342.67056 C 305.99736 339.78769 314.98861 319.88493 315.65752 314.23697 C 316.05867 310.84987 315.90732 309.00064 315.22783 309.00064 z M 421.65361 312.67838 C 421.29855 312.70954 420.60999 313.60639 419.41533 315.50064 C 416.58489 319.98861 409.34984 333.95 407.9583 337.61002 C 406.4896 341.47298 408.25692 340.35869 411.70049 335.24869 C 415.90211 329.01378 422.00759 316.09618 421.96807 313.52799 C 421.95918 312.9517 421.86665 312.65968 421.65361 312.67838 z M 407.43486 314.56119 L 397.96807 322.85416 C 380.75121 337.93388 369.26653 343.34892 354.30791 343.44205 C 349.25207 343.47355 345.42706 343.80307 345.80791 344.17252 C 347.60976 345.92037 354.28697 346.91575 362.11846 346.60611 C 369.60192 346.31022 371.74333 345.78276 378.37627 342.59244 C 387.23639 338.33089 396.48832 330.16904 403.03057 320.84244 L 407.43486 314.56119 z M 323.68682 331.47525 C 322.94235 331.33495 321.95703 334.35122 320.04424 342.01627 C 316.14652 357.63546 314.31191 359.54799 312.45049 349.92642 C 311.60595 345.56106 310.98478 344.44007 309.26885 344.1901 C 306.06631 343.72356 304.83475 346.86883 305.95049 352.66666 C 306.46216 355.3255 309.38285 364.7857 312.44072 373.6901 C 315.49861 382.5945 317.99932 391.03759 317.99932 392.45377 C 317.99932 397.72984 308.31601 400.76578 301.96416 397.48111 C 298.79763 395.84363 298.44619 394.86619 297.48565 385.04361 C 296.34676 373.39724 293.05471 369.00064 285.47393 369.00064 C 279.61985 369.00064 272.18723 373.08282 263.76104 380.92838 C 255.49469 388.62509 253.2972 390.00064 249.26104 390.00064 C 245.48738 390.00064 241.3382 385.63592 235.95244 376.00064 C 227.97914 361.73615 224.74563 359.26708 220.40557 364.13736 C 216.60686 368.40015 202.22478 379.42697 189.99932 387.44986 C 183.12432 391.96155 175.52518 396.96868 173.11065 398.57681 C 167.65544 402.21011 167.56583 402.26366 155.99932 409.18033 C 150.7744 412.30479 145.84131 415.00479 145.03643 415.18033 C 142.73262 415.68279 127.5712 424.59287 115.24736 432.68619 C 105.69822 438.95731 103.63428 440.78881 101.61065 444.78775 C 97.525942 452.8596 86.489774 481.72443 80.690724 499.50064 C 70.909482 529.48372 59.999318 564.03452 59.999318 565.03189 C 59.999318 565.56419 60.8101 566.00064 61.800099 566.00064 C 64.509558 566.00064 65.999318 568.02274 65.999318 571.69986 C 65.999318 575.61055 67.351557 575.88049 72.858693 573.07096 C 76.154071 571.38978 77.297873 569.74003 81.772755 560.19986 C 85.913306 551.37246 87.126093 547.53949 88.050099 540.3776 C 88.680108 535.49445 89.45845 530.37564 89.778615 529.00064 L 90.360646 526.50064 L 90.764943 528.85806 C 91.139954 531.05034 90.485024 536.81329 88.026662 553.00064 C 86.39089 563.77155 86.757008 570.01231 89.282521 574.47135 C 91.995279 579.26098 97.230227 583.00064 101.22393 583.00064 C 105.22137 583.00064 109.66797 578.40284 110.50713 573.40103 C 110.86704 571.25579 113.10297 562.52563 115.47588 554.00064 C 121.31135 533.03593 122.16712 527.51575 122.90947 506.00064 L 123.54619 487.50064 L 124.35674 501.00064 C 124.88677 509.83689 124.78364 517.26435 124.05986 522.50064 C 119.32364 556.76531 119.1266 571.22818 123.26885 580.27603 L 125.73369 585.65885 L 134.61651 586.8776 C 148.56465 588.78979 159.82945 591.74918 168.36846 595.74478 L 176.23565 599.42642 L 178.06377 597.17056 C 180.85384 593.72498 181.43808 586.85501 180.24541 571.50064 C 179.63406 563.63012 179.38778 547.21187 179.68291 534.00064 C 180.16489 512.42631 180.02815 509.68121 178.02861 500.50064 C 175.20105 487.51833 174.47502 482.21502 175.70049 483.50064 C 176.22476 484.05064 177.83719 490.80065 179.28252 498.50064 C 181.98438 512.89486 183.25142 522.17313 187.48955 558.56705 C 189.81252 578.51489 192.44629 594.51295 194.91533 603.68228 C 195.84715 607.14282 196.65343 608.04392 200.03057 609.39517 C 205.23843 611.47895 205.73433 611.43101 206.55401 608.75064 C 206.93243 607.51314 209.60409 602.45064 212.49151 597.50064 C 221.00576 582.90436 222.38513 579.59907 229.81377 556.00064 C 237.7701 530.72588 240.60725 520.46321 244.97783 501.14517 C 247.25689 491.07177 248.64203 487.01732 250.61846 484.64517 C 252.05962 482.91547 261.43354 472.50063 271.44854 461.50064 C 295.55647 435.02166 305.67685 422.803 314.67705 409.31119 L 322.13994 398.12174 L 323.21416 387.81119 C 323.80446 382.13996 324.63515 377.10972 325.05986 376.63346 C 326.1926 375.36328 331.63127 393.18049 333.0208 402.71158 C 334.42943 412.37371 333.28359 421.23493 329.48955 430.00064 C 328.18025 433.02564 322.86248 446.30066 317.67315 459.50064 C 286.02322 540.00782 249.86747 607.02043 208.42315 661.98697 C 202.41562 669.95458 195.85208 678.90074 193.83721 681.86783 C 188.70765 689.4216 173.4636 704.72209 168.5794 707.21939 C 166.33578 708.36655 162.24931 709.90668 159.49932 710.64127 C 153.51717 712.23924 139.57983 712.48979 140.51104 710.98306 C 140.8565 710.4241 141.51915 710.20256 141.98565 710.49088 C 143.49572 711.42415 162.57254 708.29491 166.59502 706.45377 C 171.56979 704.17675 188.92518 686.73279 192.55986 680.35611 C 194.08223 677.68527 196.33228 674.37564 197.55986 673.00064 C 200.23535 670.00389 226.17592 628.5308 238.52861 607.50064 C 264.14066 563.89679 299.43117 486.11788 309.38018 451.3483 C 315.32435 430.57472 315.57706 431.41674 305.97783 440.05924 C 290.06944 454.3821 270.77772 477.00618 262.66533 490.85416 C 260.84649 493.95896 256.30352 505.05065 252.56963 515.50064 C 244.52743 538.0083 234.51927 563.26483 226.16338 582.13931 C 214.51927 608.44129 198.41119 638.79682 193.07158 644.50064 C 191.52694 646.15064 186.34249 652.84022 181.5501 659.36783 C 171.69199 672.79531 169.3861 673.67393 172.52861 662.80338 C 173.53081 659.33657 174.37846 653.12564 174.41143 649.00064 C 174.48423 639.89126 172.26042 634.36875 165.86846 627.77994 C 157.60242 619.25933 136.23336 613.66665 124.31377 616.90494 C 120.48786 617.94436 119.95426 618.50418 118.11846 623.4108 C 115.24626 631.08744 110.63904 651.1461 106.03643 676.00064 C 103.84666 687.82563 101.4372 699.52565 100.68291 702.00064 L 99.311818 706.50064 L 98.595021 699.00064 C 98.201593 694.87565 98.020399 677.32563 98.190724 660.00064 C 98.560148 622.42384 98.106135 617.90629 93.503224 613.30338 C 87.44532 607.24547 81.718073 609.36849 76.284474 619.68619 C 72.743536 626.40997 58.940072 668.83078 56.591115 680.20767 C 55.715837 684.44698 54.999318 691.12537 54.999318 695.04947 L 54.999318 702.18424 L 61.284474 708.46939 C 71.288856 718.47377 83.478016 723.53893 109.64385 728.56119 C 129.87303 732.44397 135.40823 732.90495 156.99932 732.51236 C 170.95492 732.2586 179.91126 731.56229 188.49932 730.06119 C 221.69229 724.25942 249.29201 713.52235 275.49932 696.21549 C 302.33156 678.49591 335.4495 636.48296 348.11065 604.10025 C 356.25401 583.27246 372.939 510.73647 379.41729 468.00064 C 386.94342 418.35247 389.08358 364.00064 383.51299 364.00064 C 382.74538 364.00064 381.83925 364.45331 381.49736 365.0065 C 381.15548 365.55968 379.12594 374.22219 376.98955 384.2565 C 363.23379 448.86528 347.3108 499.20998 325.02276 548.56119 C 311.18549 579.20027 282.73524 632.34913 266.43877 658.00064 C 251.66946 681.24833 254.62544 674.17957 273.96611 640.00064 C 292.54838 607.16198 301.65754 587.79315 312.53447 558.00064 C 335.80407 494.264 347.31287 456.14617 354.45635 419.15689 C 358.0026 400.79426 360.99932 376.62621 360.99932 366.38931 C 360.99932 358.80048 360.80531 357.8901 359.24932 358.18619 C 356.67572 358.67593 351.57775 366.8636 347.99541 376.26041 C 343.34599 388.4563 340.80331 389.4916 336.47588 380.95181 C 333.47571 375.03128 327.29057 352.11563 325.97002 342.02603 C 325.43196 337.91492 324.7146 333.67793 324.37627 332.61197 C 324.15624 331.9187 323.93497 331.52202 323.68682 331.47525 z M 342.67901 349.00064 C 340.02978 349.00064 335.99932 357.04735 335.99932 362.33853 C 335.99932 368.51494 338.39068 368.63344 341.06377 362.59049 C 342.13653 360.16533 343.29584 356.11532 343.6419 353.59049 C 344.16236 349.79337 343.99728 349.00064 342.67901 349.00064 z M 285.40361 349.63931 C 280.82694 349.64937 251.34684 366.42268 246.5169 372.16275 C 243.72126 375.48517 243.41781 377.01679 245.20049 378.79947 C 247.12513 380.72411 249.95775 380.21277 255.91924 376.86588 C 258.98871 375.14263 264.2524 371.55306 267.61651 368.88736 C 274.12407 363.73081 285.99932 351.53842 285.99932 350.01431 C 285.99932 349.75747 285.79147 349.63846 285.40361 349.63931 z M 408.10869 370.10025 C 408.03859 370.06745 407.97855 370.09424 407.92901 370.18424 C 406.71075 372.39693 404.11928 396.25993 402.46416 420.50064 C 400.51941 448.98314 399.35622 457.43357 392.93291 489.77799 C 379.29432 558.45496 364.11736 604.02999 342.05986 642.53971 C 327.31047 668.29038 309.4861 686.91674 283.12041 704.13346 C 255.81068 721.96664 223.88488 733.64724 182.60869 740.90885 C 173.31887 742.54318 165.31366 744.28787 164.81768 744.78385 C 163.14514 746.45638 166.66048 748.02723 177.63408 750.51431 C 209.48254 757.73253 241.12289 759.37416 271.99932 755.4108 C 292.22052 752.81517 320.01394 745.07329 333.37627 738.31314 C 353.99121 727.8838 367.23665 708.21099 381.89971 666.24088 C 397.72232 620.95173 402.04077 597.05638 409.49541 513.50064 C 410.86936 498.10066 412.7706 479.42564 413.72197 472.00064 C 415.82543 455.58424 416.14447 409.06324 414.23955 396.50064 C 412.40458 384.39928 409.16028 370.59231 408.10869 370.10025 z M 436.17315 439.03189 C 435.41837 438.83985 434.72241 440.31614 433.96221 443.13931 C 429.36877 460.19806 425.08017 487.60166 419.50713 535.50064 C 412.3634 596.8994 407.21073 624.79584 397.39971 655.19205 C 393.84791 666.19615 389.64342 676.41069 378.96807 699.96158 C 372.57409 714.06732 371.35663 721.73627 375.09697 724.35611 C 378.10906 726.46587 379.46041 726.42679 389.3333 723.95572 C 418.36843 716.68856 431.976 707.78587 435.11455 694.00064 C 436.21461 689.16891 431.77788 647.81995 429.58916 642.50455 L 428.35674 639.51041 L 423.53252 646.00455 C 417.17289 654.56582 413.28801 663.15568 407.08916 682.36588 C 404.27322 691.09248 401.53967 698.96749 401.01494 699.86588 C 399.41232 702.60973 399.83079 683.11101 401.57158 673.93424 C 403.80175 662.17776 406.92397 652.76139 417.46221 626.00064 C 445.09235 555.83677 447.50209 546.71527 447.44854 512.50064 C 447.41714 492.43423 447.2331 490.45358 443.28838 467.97135 C 439.77629 447.95482 437.83365 439.45438 436.17315 439.03189 z M 60.046193 576.00064 C 57.812805 576.00064 55.804219 577.47773 54.432912 580.12955 C 51.920499 584.98802 54.434192 588.19557 64.499318 592.97135 C 70.186501 595.66985 70.517745 595.71752 70.823537 593.88541 C 71.000972 592.82232 70.407749 589.73559 69.50713 587.02408 C 68.00472 582.50075 62.42594 576.00064 60.046193 576.00064 z M 90.499318 586.00064 C 90.053106 586.00064 88.184434 587.14844 86.345021 588.55142 C 83.757335 590.52515 82.999318 591.83998 82.999318 594.36392 C 82.999318 601.36594 94.372764 607.09004 102.29815 604.07681 C 105.14956 602.99271 106.22434 600.74361 105.42119 597.54361 C 104.90311 595.47942 92.649351 586.00064 90.499318 586.00064 z M 135.61065 592.57681 C 135.17683 592.57907 134.88212 592.64237 134.72588 592.76627 C 134.05117 593.30132 131.88183 594.26061 129.90361 594.89713 C 124.75073 596.55513 117.42246 601.4274 115.37041 604.55924 C 113.68184 607.13631 113.68686 607.29787 115.49736 608.62174 C 116.73226 609.52472 120.17772 610.00064 125.48174 610.00064 C 136.63256 610.00064 142.93042 611.88505 158.81963 619.97916 C 173.14204 627.27511 175.66293 628.03913 176.67901 625.39127 C 177.9154 622.16927 174.12454 613.58291 168.5208 606.91666 L 162.98565 600.33267 L 149.47002 596.06314 C 142.01062 593.7067 137.49052 592.56703 135.61065 592.57681 z M 52.720021 593.00064 C 51.274844 593.00064 40.965192 609.66053 36.630177 619.00064 C 23.228349 647.87587 18.087513 667.83598 21.35088 678.33072 C 23.011952 683.67261 26.912264 689.98221 28.559865 689.99283 C 29.142812 689.99683 32.390776 685.38814 35.776662 679.75064 C 45.812583 663.04085 53.408812 644.86804 60.452443 620.72721 L 64.118458 608.16666 L 61.477833 602.95767 C 58.579667 597.23842 54.852687 593.00064 52.720021 593.00064 z M 196.36651 616.56705 C 194.54417 616.55072 194.05747 618.8607 192.60479 626.69205 C 190.78745 636.48926 191.2167 639.01793 194.23174 636.29361 C 195.32323 635.30737 197.35544 632.25338 198.74736 629.50846 C 200.13929 626.76353 201.63609 623.27008 202.07354 621.74478 C 202.79843 619.21725 202.54824 618.83865 199.25713 617.46353 C 197.99639 616.93676 197.07959 616.57344 196.36651 616.56705 z "
       transform="translate(-12.190724,-22.750643)" />
    <path
       id="path1992"
       style="fill:#ffccaa"
       d="M 265.25322 76.99869 C 258.06185 77.029394 258.52519 77.584508 258.98955 84.500643 C 259.22056 87.941342 259.8063 88.884352 260.80401 87.422518 C 262.29812 85.23336 267.93173 82.000643 270.25127 82.000643 C 271.59471 82.000643 273.73101 82.900645 274.99932 84.000643 C 276.26763 85.100641 277.68779 86.000643 278.15361 86.000643 C 278.61945 86.000643 278.99932 86.450645 278.99932 87.000643 C 278.99932 88.514731 276.05357 88.197467 274.35674 86.500643 C 271.43598 83.579884 266.72735 84.990054 261.56182 90.334627 C 259.7048 92.256 259.07295 93.524536 259.84502 93.781893 C 260.5168 94.005819 261.68771 93.673416 262.44658 93.043612 C 264.35388 91.460694 272.99932 91.987082 272.99932 93.68619 C 272.99932 94.408415 272.05706 95.000643 270.90557 95.000643 C 269.65295 95.000643 268.60325 95.804042 268.29033 97.000643 C 267.68528 99.314332 263.99932 99.74381 263.99932 97.500643 C 263.99932 95.717289 262.41616 95.516438 261.39385 97.170565 C 260.26832 98.991714 260.2231 111.26684 261.3333 113.50064 C 262.53098 115.91053 265.19037 118.00018 266.23565 117.35416 C 266.65187 117.09691 267.52715 118.06531 268.18291 119.50455 C 269.16704 121.66448 269.95057 122.07047 272.66533 121.83658 C 276.75826 121.48395 279.64289 123.75756 276.23369 124.64908 C 273.49623 125.36495 273.32345 127.01035 275.91533 127.68814 C 276.96874 127.96362 278.08536 129.20125 278.3958 130.43814 C 278.70624 131.67503 280.15032 133.87625 281.60479 135.33072 C 283.6474 137.37336 284.84615 137.82901 286.87432 137.33267 C 288.3185 136.97925 289.64603 136.32504 289.82354 135.8776 C 290.00105 135.43016 292.37402 133.42722 295.09697 131.42838 C 301.11382 127.01161 302.68657 127.24413 309.40752 133.53971 L 314.31572 138.13736 L 313.20244 153.319 C 311.76947 172.84521 309.80636 180.31831 303.06377 191.9108 C 301.9729 193.78631 301.31777 195.70571 301.60869 196.17642 C 302.7416 198.00955 309.08077 192.91919 322.99932 179.00064 C 338.61221 163.38775 347.32827 156.83358 355.71611 154.39517 C 359.73642 153.22645 361.38728 152.15214 362.51299 149.97525 C 364.61755 145.9055 364.35727 141.72474 361.79815 138.47135 L 359.59697 135.67252 L 366.29815 136.29947 C 369.98374 136.64364 372.99932 136.74136 372.99932 136.51822 C 372.99932 136.29509 371.12078 134.99166 368.82354 133.62174 L 364.6458 131.1315 L 364.89971 124.91861 C 365.12719 119.34485 364.99657 118.86082 363.62627 120.23111 C 362.78603 121.07136 360.50011 122.05827 358.54815 122.42447 C 356.59616 122.79066 354.99932 123.46426 354.99932 123.92056 C 354.99932 124.37689 353.66859 125.01522 352.04229 125.34049 C 350.09752 125.72944 348.54864 126.97029 347.5169 128.96549 C 346.24221 131.43046 345.31936 132.00064 342.58916 132.00064 C 340.74115 132.00064 337.93992 132.67317 336.36455 133.49478 C 334.78918 134.31639 332.58502 134.99139 331.46611 134.99478 C 329.22014 135.00178 325.99932 130.40744 325.99932 127.19596 C 325.99932 125.51028 325.44278 125.25052 322.41533 125.53189 C 319.32926 125.81872 318.59846 125.45702 317.16533 122.93033 C 316.24964 121.31592 314.70612 119.73765 313.73565 119.42447 C 312.76516 119.11129 312.22879 118.43879 312.54424 117.92838 C 312.85968 117.41798 311.40482 116.99954 309.30986 116.99869 C 303.42663 116.99669 298.74865 114.16713 297.74151 110.00064 C 296.53364 105.00392 294.39987 100.67261 292.13799 98.625643 C 291.06304 97.652821 288.51523 93.401518 286.47588 89.178377 C 280.67174 77.158955 280.44165 77.000643 268.82549 77.000643 C 267.46337 77.000643 266.28056 76.994304 265.25322 76.99869 z M 146.87432 181.04361 C 145.84007 181.07307 144.99932 181.57786 144.99932 182.53971 C 144.99932 186.84728 152.09813 196.00064 155.43877 196.00064 C 156.08171 196.00064 157.98331 197.46314 159.66533 199.25064 C 163.73665 203.5772 171.32414 215.00064 170.12627 215.00064 C 168.88042 215.00064 164.47526 209.72239 161.7083 204.91471 C 160.49801 202.81179 157.86906 200.17021 155.86455 199.04361 L 152.22002 196.99478 L 151.74932 200.74674 C 151.49069 202.81051 151.66662 205.2579 152.13994 206.18424 C 152.61325 207.11058 152.99932 209.28914 152.99932 211.02603 C 152.99932 212.76294 153.92488 215.36152 155.05596 216.79947 C 156.24936 218.31663 156.90341 220.27198 156.61455 221.45767 C 156.18167 223.23454 157.304 223.957 165.21807 227.00064 C 177.0698 231.55868 186.61595 237.95024 196.47588 247.92838 C 200.86298 252.36805 205.20203 256.00064 206.11651 256.00064 C 207.03096 256.00064 208.80635 255.16728 210.06377 254.14908 C 212.94898 251.81278 213.81459 242.76958 212.08135 233.07096 L 210.90166 226.46158 L 202.71611 220.48111 C 198.21492 217.19169 190.6413 210.67564 185.88408 206.00064 C 176.66693 196.94279 166.09722 189.69165 156.78838 186.03971 C 153.64749 184.80751 150.55625 183.16897 149.91729 182.39908 C 149.13746 181.45945 147.90857 181.01415 146.87432 181.04361 z M 130.78252 183.20572 C 126.81675 183.17283 126.05689 185.73682 129.00713 190.51041 C 131.13613 193.9552 131.25251 194.00064 138.1126 194.00064 C 143.46905 194.00064 145.19883 193.64518 145.65752 192.44986 C 146.55592 190.10865 142.34568 186.27498 136.88018 184.45963 C 134.3769 183.62817 132.33434 183.21859 130.78252 183.20572 z M 137.15361 196.15885 C 130.69569 196.19285 127.99932 197.31151 127.99932 199.83463 C 127.99932 203.34701 130.11075 204.0797 139.37822 203.78385 C 146.57522 203.5541 148.50075 203.16425 149.38994 201.75064 C 150.19074 200.47755 150.19037 199.52373 149.38994 198.25064 C 148.5172 196.86255 146.60629 196.43989 140.15361 196.20963 C 139.07436 196.17112 138.07618 196.15399 137.15361 196.15885 z M 142.53057 206.00064 C 133.72451 206.00064 129.99932 207.171 129.99932 209.9401 C 129.99932 214.00025 142.18853 217.39946 148.34893 215.05728 C 151.33293 213.92276 152.51255 210.82513 151.0208 208.03775 C 150.07431 206.26923 148.95253 206.00064 142.53057 206.00064 z M 146.98174 216.49478 C 146.17753 216.49593 145.28132 216.51875 144.27666 216.55924 C 136.58636 216.86917 134.99932 217.35608 134.99932 219.40494 C 134.99932 224.33257 148.89217 227.10779 152.99932 223.00064 C 155.45087 220.54911 155.48983 219.73713 153.24932 217.78971 C 152.19472 216.87306 150.46667 216.48983 146.98174 216.49478 z M 180.99932 249.23502 C 179.17103 249.58263 178.41644 253.81621 179.91533 255.3151 C 180.51189 255.91166 180.99932 256.98486 180.99932 257.69986 C 180.99932 259.48884 171.23796 259.38874 163.49932 257.52017 C 155.7253 255.64307 153.07233 255.64754 152.34697 257.53775 C 152.02253 258.38323 152.50554 259.90118 153.41924 260.9108 C 154.97709 262.63221 154.95332 262.77968 153.04033 263.27994 C 151.82929 263.59664 150.99932 264.64103 150.99932 265.85025 C 150.99932 269.08604 154.77799 271.00064 161.16338 271.00064 C 164.30854 271.00064 167.1594 271.45064 167.49932 272.00064 C 168.17388 273.0921 165.81262 273.38974 159.25322 273.04361 C 151.10264 272.61351 153.20303 279.30761 161.61455 280.569 C 165.70631 281.1826 168.09461 283.33906 164.24932 282.94791 C 161.02805 282.62024 159.99932 282.98858 159.99932 284.4733 C 159.99932 286.74657 164.06984 288.38954 183.13994 293.81314 C 202.74807 299.38978 203.05507 299.52173 216.13604 307.98111 C 221.25466 311.2913 225.76231 314.00064 226.15361 314.00064 C 226.54493 314.00064 227.18705 312.98814 227.58135 311.75064 C 229.0406 307.17083 228.23678 292.68164 226.23565 287.50064 C 224.63882 283.36645 223.28193 281.82694 218.40166 278.61392 C 215.09016 276.43375 210.52406 272.13146 207.99932 268.81119 C 204.71862 264.49675 200.65428 261.00285 192.99932 255.92056 C 187.22432 252.08644 181.82432 249.07817 180.99932 249.23502 z M 155.49932 263.02408 L 158.99932 263.76236 C 160.92432 264.16798 165.53682 264.38176 169.24932 264.23697 C 173.31471 264.07841 175.99932 264.3767 175.99932 264.98697 C 175.99932 266.55148 161.96736 266.13488 158.49932 264.46744 L 155.49932 263.02408 z "
       transform="translate(-12.190724,-22.750643)" />
    <path
       id="path1998"
       style="fill:#ffcc00"
       d="M 298.36846 26.643221 C 291.56889 26.567556 288.38461 27.363983 286.1126 29.344393 C 284.69593 30.579234 280.70162 31.738351 271.99932 33.442049 C 268.72033 34.083996 262.09397 39.621599 260.9251 42.695955 C 260.36837 44.160261 259.54541 44.836593 258.84697 44.40494 C 258.16282 43.982107 257.95996 44.127891 258.35088 44.760409 C 258.71429 45.348412 258.67307 45.98023 258.25713 46.164705 C 257.09499 46.680153 253.99932 52.6178 253.99932 54.332674 C 253.99932 55.171027 253.27854 56.578834 252.3958 57.46158 C 250.20072 59.65665 251.32497 65.327862 254.34893 67.309237 C 255.61131 68.136378 258.63635 69.380783 261.07158 70.074862 C 263.50681 70.768939 265.92799 71.71133 266.45049 72.168612 C 266.97299 72.625893 269.89799 73.014402 272.95049 73.031893 C 276.11117 73.050003 279.29378 73.665098 280.34502 74.46158 C 282.21279 75.876707 286.52162 83.12709 289.91338 90.56119 C 290.93226 92.794399 293.18478 96.169403 294.91924 98.06119 C 296.65371 99.952976 298.31897 102.62564 298.61846 104.00064 C 300.26673 111.56808 301.71991 113.02678 308.99932 114.42252 C 314.17142 115.41421 316.12516 116.54763 317.9251 119.5983 C 319.69117 122.59157 320.42752 123.00064 324.0501 123.00064 C 329.01701 123.00064 329.09443 120.67206 324.14385 120.18424 C 321.70457 119.94387 320.32871 118.94325 318.36846 115.98111 C 316.26534 112.80308 315.03739 111.97764 311.64776 111.46549 C 306.45319 110.68064 303.87188 108.56135 302.15752 103.67447 C 301.41953 101.5708 300.96953 99.770795 301.15752 99.674471 C 301.34551 99.578151 302.56092 98.903053 303.85674 98.174471 C 305.93249 97.007368 306.47922 97.099906 308.45049 98.951815 C 309.68109 100.10789 311.76949 101.26162 313.09307 101.51431 C 317.50932 102.35749 320.88679 104.1787 322.44658 106.55924 C 323.29617 107.85587 325.71684 109.43334 327.82549 110.0651 C 329.93414 110.69687 333.51986 112.98296 335.79229 115.14517 C 338.06471 117.30739 341.29107 119.5548 342.96221 120.13736 C 344.63335 120.71992 345.99932 121.8271 345.99932 122.5983 C 345.99932 124.49564 350.62938 124.41133 351.3626 122.50064 C 352.30798 120.03703 351.13681 118.45065 347.36455 117.08658 C 345.40288 116.37723 341.93885 113.93823 339.66729 111.66666 C 337.39573 109.3951 335.07903 107.48446 334.51885 107.42056 C 333.95868 107.35666 332.71182 107.23677 331.74932 107.15299 C 330.78682 107.06919 328.98946 105.98814 327.75322 104.75064 C 323.48158 100.47461 312.49524 92.024974 311.19072 92.012362 C 310.47076 92.005402 310.1594 91.550642 310.49932 91.000643 C 311.44686 89.467491 314.59919 89.811951 316.09307 91.611971 C 319.1559 95.302463 332.18373 105.15606 334.29815 105.3815 C 337.55317 105.72854 338.99932 106.83603 338.99932 108.98111 C 338.99932 110.21486 340.15268 111.22589 342.41143 111.97135 C 344.2878 112.5906 346.06168 113.71848 346.35283 114.47721 C 346.64398 115.23593 348.14445 116.00121 349.68682 116.17838 C 351.88551 116.43093 352.62728 117.14854 353.12627 119.50064 C 353.47631 121.15064 353.81705 121.93814 353.88213 121.25064 C 353.94723 120.56314 355.15241 120.00064 356.55986 120.00064 C 359.98161 120.00064 358.96587 118.6745 353.62236 116.16275 C 348.869 113.9284 345.94392 110.05084 343.06572 102.17642 C 341.07185 96.721423 338.23308 92.973486 336.5794 93.608065 C 335.96029 93.845641 334.61034 92.568546 333.57744 90.770174 C 328.30519 81.590627 320.47038 75.114886 316.4876 76.643221 C 315.59019 76.98759 313.01264 75.23268 309.81572 72.102205 C 306.95004 69.296086 304.01846 67.000643 303.30205 67.000643 C 302.58564 67.000643 301.99932 66.550642 301.99932 66.000643 C 301.99932 64.120622 307.26707 64.996944 309.51299 67.250643 C 314.55412 72.309234 316.88307 74.000643 318.80791 74.000643 C 322.33499 74.000643 329.81347 77.777586 331.0501 80.184237 C 331.70454 81.457863 333.06036 83.400644 334.06377 84.500643 C 341.93544 93.130013 344.1026 96.310777 346.66533 103.00064 C 349.36365 110.04443 349.8558 110.67082 354.76885 113.31314 L 359.99932 116.1276 L 359.99932 113.01627 C 359.99932 110.57196 359.33694 109.54264 356.90166 108.20377 C 349.35504 104.05477 344.99932 98.195938 344.99932 92.194002 C 344.99932 90.579145 344.11886 88.513816 342.99932 87.500643 C 341.89932 86.505158 340.99932 85.268101 340.99932 84.752596 C 340.99932 83.451916 337.37335 78.960605 336.79229 79.541659 C 336.5319 79.802054 334.37888 77.760548 332.00713 75.006502 C 329.0131 71.529881 326.9444 70.000643 325.24151 70.000643 C 323.89254 70.000643 321.49279 68.909087 319.90947 67.576815 C 316.5873 64.781382 307.09648 61.000643 303.40361 61.000643 C 301.83874 61.000643 301.13796 60.58715 301.55596 59.910799 C 302.83272 57.844967 312.32752 60.411086 319.22979 64.688143 C 321.28135 65.959419 324.29341 67.000643 325.92315 67.000643 C 327.67579 67.000643 329.41979 67.758756 330.19268 68.858065 C 330.91136 69.880289 333.86182 72.169052 336.74932 73.944002 C 339.63681 75.718953 341.99932 77.814966 341.99932 78.600252 C 341.99932 80.16888 343.54958 83.187513 346.24932 86.877596 C 347.21182 88.193171 347.99932 90.568183 347.99932 92.15494 C 347.99932 96.273146 352.12327 102.12142 356.90166 104.77994 L 360.99932 107.05924 L 360.99932 104.74088 C 360.99932 103.46501 360.36735 99.962678 359.59502 96.959627 C 358.82269 93.956575 357.68091 87.900639 357.05596 83.500643 C 356.431 79.100647 355.40872 73.925641 354.78447 72.000643 C 354.16021 70.075645 353.73932 67.195308 353.85088 65.600252 C 353.96244 64.005196 353.37707 60.367659 352.54815 57.516268 C 351.28392 53.16746 350.13111 51.618608 345.40166 47.914705 C 342.3007 45.48616 339.25476 42.894896 338.63213 42.15494 C 328.05542 29.585312 325.16194 28.222257 306.47197 26.99869 C 303.30198 26.791161 300.63498 26.668443 298.36846 26.643221 z M 303.68096 98.65494 L 304.3626 102.06314 C 305.2675 106.58762 306.90211 108.04367 311.82354 108.70377 C 315.03115 109.134 316.78884 110.20312 319.90361 113.62564 C 322.09275 116.03108 324.69608 118.00249 325.69072 118.00455 C 329.42716 118.01255 337.88119 124.67288 337.96611 127.67642 C 337.99701 128.76825 339.7973 129.60493 342.71416 129.88346 C 343.38231 129.94726 344.41062 129.10064 344.99932 128.00064 C 346.45259 125.28518 344.62738 122.00064 341.66533 122.00064 C 340.382 122.00064 337.58492 120.25291 335.2044 117.96549 C 332.89525 115.74665 329.03548 113.08721 326.62822 112.05533 C 324.22097 111.02346 320.82946 108.78978 319.09111 107.09049 C 317.18519 105.22738 314.89047 104.00064 313.30986 104.00064 C 311.86825 104.00064 309.11201 102.79672 307.18486 101.32681 L 303.68096 98.65494 z M 331.19854 124.27994 C 329.08508 124.33442 328.06617 127.53106 330.24151 131.01431 C 331.65894 133.284 333.07283 133.52674 334.8001 131.79947 C 336.51777 130.0818 336.28599 128.22242 334.05596 125.82877 C 333.01998 124.71678 332.02554 124.25862 331.19854 124.27994 z "
       transform="translate(-12.190724,-22.750643)" />
  </g>
</svg>
